<svg width="127" height="34" viewBox="0 0 127 34" fill="none" xmlns="http://www.w3.org/2000/svg">
<path d="M22.68 4.92V10.4H15.24V33H8.4V10.4H0.96V4.92H22.68ZM32.9528 14.4C33.7528 13.1733 34.7528 12.2133 35.9528 11.52C37.1528 10.8 38.4861 10.44 39.9528 10.44V17.68H38.0728C36.3661 17.68 35.0861 18.0533 34.2328 18.8C33.3795 19.52 32.9528 20.8 32.9528 22.64V33H26.1128V10.68H32.9528V14.4ZM46.6622 8.36C45.4622 8.36 44.4755 8.01333 43.7022 7.32C42.9555 6.6 42.5822 5.72 42.5822 4.68C42.5822 3.61333 42.9555 2.73333 43.7022 2.04C44.4755 1.32 45.4622 0.959998 46.6622 0.959998C47.8355 0.959998 48.7955 1.32 49.5422 2.04C50.3155 2.73333 50.7022 3.61333 50.7022 4.68C50.7022 5.72 50.3155 6.6 49.5422 7.32C48.7955 8.01333 47.8355 8.36 46.6622 8.36ZM50.0622 10.68V33H43.2222V10.68H50.0622ZM65.0591 26.6L69.8991 10.68H77.1791L69.2591 33H60.8191L52.8991 10.68H60.2191L65.0591 26.6ZM83.4981 8.36C82.2981 8.36 81.3115 8.01333 80.5381 7.32C79.7915 6.6 79.4181 5.72 79.4181 4.68C79.4181 3.61333 79.7915 2.73333 80.5381 2.04C81.3115 1.32 82.2981 0.959998 83.4981 0.959998C84.6715 0.959998 85.6315 1.32 86.3781 2.04C87.1515 2.73333 87.5381 3.61333 87.5381 4.68C87.5381 5.72 87.1515 6.6 86.3781 7.32C85.6315 8.01333 84.6715 8.36 83.4981 8.36ZM86.8981 10.68V33H80.0581V10.68H86.8981ZM90.495 21.8C90.495 19.5067 90.9217 17.4933 91.775 15.76C92.655 14.0267 93.8417 12.6933 95.335 11.76C96.8283 10.8267 98.495 10.36 100.335 10.36C101.908 10.36 103.282 10.68 104.455 11.32C105.655 11.96 106.575 12.8 107.215 13.84V10.68H114.055V33H107.215V29.84C106.548 30.88 105.615 31.72 104.415 32.36C103.242 33 101.868 33.32 100.295 33.32C98.4817 33.32 96.8283 32.8533 95.335 31.92C93.8417 30.96 92.655 29.6133 91.775 27.88C90.9217 26.12 90.495 24.0933 90.495 21.8ZM107.215 21.84C107.215 20.1333 106.735 18.7867 105.775 17.8C104.842 16.8133 103.695 16.32 102.335 16.32C100.975 16.32 99.815 16.8133 98.855 17.8C97.9217 18.76 97.455 20.0933 97.455 21.8C97.455 23.5067 97.9217 24.8667 98.855 25.88C99.815 26.8667 100.975 27.36 102.335 27.36C103.695 27.36 104.842 26.8667 105.775 25.88C106.735 24.8933 107.215 23.5467 107.215 21.84ZM122.203 33.32C121.003 33.32 120.017 32.9733 119.243 32.28C118.497 31.56 118.123 30.68 118.123 29.64C118.123 28.5733 118.497 27.68 119.243 26.96C120.017 26.24 121.003 25.88 122.203 25.88C123.377 25.88 124.337 26.24 125.083 26.96C125.857 27.68 126.243 28.5733 126.243 29.64C126.243 30.68 125.857 31.56 125.083 32.28C124.337 32.9733 123.377 33.32 122.203 33.32Z" fill="white"/>
</svg>
